<svg width="150" height="21" viewBox="0 0 150 21" fill="none" xmlns="http://www.w3.org/2000/svg">
<path d="M80.3347 4.21353H72.6875V0.142578H92.4113V4.21353H84.767V20.2066H80.3347V4.21353Z" fill="white"/>
<path d="M96.7949 0.142578H101.227V20.2066H96.7949V0.142578Z" fill="white"/>
<path d="M63.8203 0.142578V13.4022L52.5525 0.142578H48.1172V20.2153H52.5525V6.9527L63.8203 20.2153H68.2556V0.142578H63.8203Z" fill="white"/>
<path d="M120.901 0V15.6557H112.194L110.045 13.5156V0H105.609V15.3446L110.357 20.0698H125.333V0H120.901Z" fill="white"/>
<path d="M43.6824 0H39.25V4.41407H43.6824V0Z" fill="#00B7FF"/>
<path d="M15.2914 0.357422L9.86043 5.76597L4.4353 0.357422H0V2.08176V19.9998H4.4353V6.54527L9.86043 12.012L15.2914 6.66449V19.9998H19.7238V2.29985V0.357422H15.2914Z" fill="white"/>
<path d="M28.793 19.9998H24.1562L30.5595 0.357422H35.1963L28.793 19.9998Z" fill="white"/>
<path d="M38.5683 4.30957L43.684 20.0002H39.0209L36.2383 11.4599L38.5683 4.30957Z" fill="white"/>
<path d="M145.567 0.357422L140.139 5.76597L134.711 0.357422H130.275V2.08176V19.9998H134.711V6.54527L140.139 12.012L145.567 6.66449V19.9998H149.999V2.29985V0.357422H145.567Z" fill="white"/>
</svg>
